<svg xmlns="http://www.w3.org/2000/svg" xml:space="preserve" width="520.302" height="520.30743" viewBox="0 0 520.302 520.30742"><defs><clipPath id="a" clipPathUnits="userSpaceOnUse"><path d="M0 853.228h606.619V0H0Z"/></clipPath></defs><g clip-path="url(#a)" style="stroke-width:1.23232" transform="matrix(1.08197 0 0 -1.08197 -68.022 721.737)"><g style="stroke-width:1.23232"><path d="M0 0c132.829 0 240.441-107.615 240.441-240.441 0-132.828-107.612-240.446-240.441-240.446-132.828 0-240.441 107.618-240.441 240.446C-240.441-107.615-132.828 0 0 0" style="fill:#2d3081;fill-opacity:1;fill-rule:evenodd;stroke:none;stroke-width:1.23232" transform="translate(303.31 667.056)"/></g><g style="stroke-width:1.23232"><path d="M0 0h227.834l-8.187-30.676h231.47C427.727-132.307 336.748-208.08 227.964-208.08 108.524-208.08 10.527-116.712 0 0" style="fill:#e41e25;fill-opacity:1;fill-rule:evenodd;stroke:none;stroke-width:1.23232" transform="translate(75.345 405.69)"/></g><g style="stroke-width:1.23232"><path d="M0 0c-.779 5.328-1.561 10.661-1.95 16.118C-1.561 10.661-.779 5.328 0 0m.13-.126c17.155-104.886 8.447-52.248 0 0m225.884 266.303c126.462 0 229.006-102.544 229.006-229.003 0-18.458-2.212-36.396-6.242-53.549.129.649.259 1.304.389 1.948h-231.47l8.187 30.676H-1.95c-.65 6.891-1.039 13.777-1.039 20.925 0 126.459 102.545 229.003 229.003 229.003" style="fill:#2d3081;fill-opacity:1;fill-rule:evenodd;stroke:none;stroke-width:1.23232" transform="translate(77.295 389.44)"/></g><g style="stroke-width:1.23232"><path d="M0 0c120.219 0 217.565-97.476 217.565-217.565C217.565-337.789 120.219-435.13 0-435.13c-120.089 0-217.567 97.341-217.567 217.565C-217.567-97.476-120.089 0 0 0m0 11.438c126.461 0 229.005-102.544 229.005-229.003C229.005-344.025 126.461-446.57 0-446.57c-126.458 0-229.003 102.545-229.003 229.005S-126.458 11.438 0 11.438" style="fill:#a0d8f5;fill-opacity:1;fill-rule:evenodd;stroke:none;stroke-width:1.23232" transform="translate(303.31 644.18)"/></g><g style="stroke-width:1.23232"><path d="M0 0c4.549-.26 6.499-7.017 5.588-15.206-.779-8.06-1.691-14.816-8.577-14.167-6.888.519-6.369 7.02-5.59 15.081C-7.668-6.237-4.549.134 0 0m2.859 17.677c11.048-1.818 15.595-12.998 13.647-33.143-.781-7.54-1.56-17.158-4.679-22.611-4.289-7.41-10.788-9.877-17.547-9.099-6.497.905-13.516 4.415-15.466 13.907-1.038 4.935-.129 14.687 1.171 20.794 4.547 22.092 11.696 31.97 22.874 30.152" style="fill:#fff;fill-opacity:1;fill-rule:evenodd;stroke:none;stroke-width:1.23232" transform="translate(278.616 271.17)"/></g><g style="stroke-width:1.23232"><path d="M0 0v51.077h20.019v-64.595H0Z" style="fill:#fff;fill-opacity:1;fill-rule:evenodd;stroke:none;stroke-width:1.23232" transform="translate(327.352 541.895)"/></g><g style="stroke-width:1.23232"><path d="M0 0v-40.291h-20.015v64.595H0Z" style="fill:#fff;fill-opacity:1;fill-rule:evenodd;stroke:none;stroke-width:1.23232" transform="translate(279.265 568.669)"/></g><path d="M293.302 620.917h20.017v-20.536h-20.017z" style="fill:#fff;fill-opacity:1;fill-rule:evenodd;stroke:none;stroke-width:1.23232"/><path d="M242.615 608.568h121.39v-20.664h-121.39zM344.769 533.708h22.356v-66.025h-22.356zm-105.273 0h22.354v-66.025h-22.354z" style="fill:#fff;fill-opacity:1;fill-rule:evenodd;stroke:none;stroke-width:1.23232"/><path d="M240.275 533.448h126.071v-15.467H240.275ZM289.792 498.096h27.163v-17.545h-27.163zm-19.885 12.866h66.932v-43.28h-66.932zM269.258 564.509h68.101v15.857h-68.101zM269.258 540.986h68.101v15.855h-68.101z" style="fill:#fff;fill-opacity:1;fill-rule:evenodd;stroke:none;stroke-width:1.23232"/><g style="stroke-width:1.23232"><path d="M0 0h261.884c7.41.259 7.151-3.768 4.419-9.877l-7.276-20.924h187.152l-.909-12.219H255.906c-7.535 0-12.084 2.602-9.617 9.752l7.799 21.181H-.52Z" style="fill:#a0d8f5;fill-opacity:1;fill-rule:evenodd;stroke:none;stroke-width:1.23232" transform="translate(79.894 445.588)"/></g><g style="stroke-width:1.23232"><path d="M0 0h222.244c7.408.259 7.149-3.771 4.42-9.878l-7.278-21.053H439.29l-.909-12.09H216.267c-7.538-.129-12.087 2.472-9.618 9.619l7.798 21.187H-.519Z" style="fill:#a0d8f5;fill-opacity:1;fill-rule:evenodd;stroke:none;stroke-width:1.23232" transform="translate(81.974 411.147)"/></g><g style="stroke-width:1.23232"><path d="m0 0 14.557-18.586L25.083-7.93l25.084-27.16c8.449-8.969 22.745 5.069 15.205 13.128L23.915 22.482C17.024 14.427 9.229 6.892 0 0" style="fill:#fff;fill-opacity:1;fill-rule:evenodd;stroke:none;stroke-width:1.23232" transform="translate(377.522 313.281)"/></g><g style="stroke-width:1.23232"><path d="M0 0q14.623 5.266 25.732 14.037L38.471-4.809l-8.578-3.899 22.485-36.13-20.274-10.786-17.937 39.38-7.54-4.29z" style="fill:#fff;fill-opacity:1;fill-rule:evenodd;stroke:none;stroke-width:1.23232" transform="translate(345.029 295.085)"/></g><g style="stroke-width:1.23232"><path d="m0 0 20.669-61.477s-22.097-10.262-48.221-8.185L-28.98-2.986c3.897-.265 7.797-.391 11.437-.265l3.506-20.794 9.358 1.952-6.367 19.495C-7.275-2.078-3.506-1.169 0 0" style="fill:#fff;fill-opacity:1;fill-rule:evenodd;stroke:none;stroke-width:1.23232" transform="translate(336.45 291.445)"/></g><g style="stroke-width:1.23232"><path d="m0 0 10.267 1.947 5.717-13.387L.13-14.946Z" style="fill:#e41e25;fill-opacity:1;fill-rule:evenodd;stroke:none;stroke-width:1.23232" transform="translate(323.846 248.3)"/></g><g style="stroke-width:1.23232"><path d="M0 0c-9.748 3.511-18.454 8.189-25.862 14.037L-38.471-4.809l8.45-3.899-22.484-36.13 20.403-10.786 17.806 39.38 7.537-4.29z" style="fill:#fff;fill-opacity:1;fill-rule:evenodd;stroke:none;stroke-width:1.23232" transform="translate(262.499 295.085)"/></g><g style="stroke-width:1.23232"><path d="m0 0-20.274-18.197 5.458-3.51 30.281.26 1.821-23.915 5.977-8.575 11.308 19.101L33.01-9.618l3.381 2.727 9.878-9.488 7.278 11.311-7.538 7.795 4.549 6.112-10.529 9.357-5.198-5.721-11.176 10.531-7.93-9.359 12.087-11.83-3.638-4.159z" style="fill:#fff;fill-opacity:1;fill-rule:evenodd;stroke:none;stroke-width:1.23232" transform="translate(172.042 306.525)"/></g></g></svg>